<svg width="28" height="28" viewBox="0 0 28 28" fill="none" xmlns="http://www.w3.org/2000/svg">
<path d="M13.8725 26.7451C20.9818 26.7451 26.7451 20.9818 26.7451 13.8725C26.7451 6.76323 20.9818 1 13.8725 1C6.76323 1 1 6.76323 1 13.8725C1 20.9818 6.76323 26.7451 13.8725 26.7451Z" fill="#A42E38" fill-opacity="0.9" stroke="black" stroke-width="1.93088" stroke-linecap="round" stroke-linejoin="round"/>
<path d="M9.28718 10.2873C8.93172 10.2873 8.64355 9.99909 8.64355 9.64363C8.64355 9.28816 8.93172 9 9.28718 9C9.64264 9 9.93081 9.28816 9.93081 9.64363C9.93081 9.99909 9.64264 10.2873 9.28718 10.2873Z" fill="black" stroke="black" stroke-linecap="round" stroke-linejoin="round"/>
<path d="M18.2979 10.2873C17.9425 10.2873 17.6543 9.99909 17.6543 9.64363C17.6543 9.28816 17.9425 9 18.2979 9C18.6533 9 18.9416 9.28816 18.9416 9.64363C18.9416 9.99909 18.6533 10.2873 18.2979 10.2873Z" fill="black" stroke="black" stroke-linecap="round" stroke-linejoin="round"/>
<path d="M8 18.6546C8 18.6546 9.93088 16.0801 13.7926 16.0801C17.6544 16.0801 19.5853 18.6546 19.5853 18.6546" fill="#A42E38" fill-opacity="0.9"/>
<path d="M8 18.6546C8 18.6546 9.93088 16.0801 13.7926 16.0801C17.6544 16.0801 19.5853 18.6546 19.5853 18.6546" stroke="black" stroke-linecap="round" stroke-linejoin="round"/>
</svg>
